<svg xmlns="http://www.w3.org/2000/svg" xmlns:xlink="http://www.w3.org/1999/xlink" version="1.1" id="pomodoro" x="0px" y="0px" width="86.75px" height="77.914px" viewBox="0 0 86.75 77.914" enable-background="new 0 0 86.75 77.914" xml:space="preserve">
<path fill="#000000" d="M43.493,59.802c-0.026,0-0.051-0.004-0.077-0.004l3.995,3.439h-8.068l3.998-3.439  c-16.596-0.041-31.522-6.434-41.895-16.611c1.117,17.865,14.092,31.74,35.979,34.727h12.136  c21.887-2.984,34.86-16.857,35.979-34.726C75.132,53.396,60.148,59.802,43.493,59.802z"/>
<path fill="#000000" d="M41.58,6.934c1.506-0.531,2.09-0.531,3.595,0c1.546-2.74,3.915-5.312,6.392-6.24  C46.421-0.221,40.269-0.229,35.089,0.66C37.602,1.557,40.014,4.157,41.58,6.934z"/>
<path fill="#000000" d="M45.284,12.609h-3.781c0,0-0.655-3.279,0-3.984c0.668-0.719,3.187-0.791,3.782,0  C45.865,9.4,45.284,12.609,45.284,12.609z"/>
<path fill="#000000" d="M83.445,21.913c3-3-12-23-26-14c2.145-1.787,3.14-2.244,3.939-2.764c-0.945-1.273-2.607-2.309-4.724-3.109  c-1.938,1.999-4.3,5.343-4.3,8.016c7.884-2.742,15.398-3.365,21.275,3.169c-10.169-0.808-14.738-1.153-18.326,1.543  c2.947,1.606,6.42,4.435,6.037,14.034c-14.777-14.777-21.167-14.778-35.948,0c-0.383-9.6,3.089-12.428,6.036-14.034  c-3.587-2.696-8.157-2.351-18.326-1.543c5.877-6.534,13.394-5.911,21.276-3.169c0-2.711-2.429-6.113-4.383-8.102  c-2.151,0.778-3.865,1.789-4.873,3.031c0.968,0.535,1.808,0.955,4.175,2.928c-14-9-29,11-26,14  c-4.711,2.355-3.258,13.955-2.415,18.831c1.138,1.143,2.343,2.229,3.59,3.276v-3.445l1,0.878v3.391  c4.819,3.855,10.373,6.988,16.454,9.207v-3.206l1,0.405v3.153c6.23,2.149,12.987,3.349,20.055,3.39v-2.71h1.001v2.704  c16.646-0.16,31.574-6.709,41.869-17.045C86.702,35.87,88.156,24.269,83.445,21.913z"/>
</svg>